<svg xmlns="http://www.w3.org/2000/svg" width="111.313" height="28" viewBox="0 0 111.313 28">
  <g id="Group_8" data-name="Group 8" transform="translate(-168.377 -74.5)">
    <g id="document" transform="translate(168.377 79.655)">
      <path id="Path_1" data-name="Path 1" d="M-538.207-333.384a2.661,2.661,0,0,0,1.668-2.47,2.711,2.711,0,0,0-.674-1.78,2.649,2.649,0,0,0,.674-1.78,2.655,2.655,0,0,0-2.661-2.661,2.653,2.653,0,0,0-1.892.786,2.653,2.653,0,0,0-1.892-.786,2.653,2.653,0,0,0-1.844.739h0a2.653,2.653,0,0,0-1.845-.739,2.655,2.655,0,0,0-2.661,2.661,2.712,2.712,0,0,0,.674,1.78,2.649,2.649,0,0,0-.674,1.78,2.655,2.655,0,0,0,1.583,2.435,2.969,2.969,0,0,0-.171,1,2.952,2.952,0,0,0,2.959,2.959,3.014,3.014,0,0,0,1.979-.75,2.945,2.945,0,0,0,1.979.75,2.952,2.952,0,0,0,2.959-2.959,2.958,2.958,0,0,0-.16-.962Zm-7.963-1.743q-.125.055-.243.122a.887.887,0,0,1-.27.042.9.9,0,0,1-.89-.89.892.892,0,0,1,.89-.89.892.892,0,0,1,.89.89.892.892,0,0,1-.377.726Zm2.286-4.287a.892.892,0,0,1,.89-.89.892.892,0,0,1,.89.89.886.886,0,0,1-.89.89A.892.892,0,0,1-543.885-339.414Zm0,3.56a.892.892,0,0,1,.89-.89.892.892,0,0,1,.89.89.892.892,0,0,1-.89.89A.9.9,0,0,1-543.885-335.853Zm-3.689-3.56a.892.892,0,0,1,.89-.89.892.892,0,0,1,.89.89.886.886,0,0,1-.89.89A.892.892,0,0,1-547.574-339.414Zm7.474,0a.892.892,0,0,1,.89-.89.892.892,0,0,1,.89.89.886.886,0,0,1-.89.89A.892.892,0,0,1-540.1-339.414Zm0,3.56a.892.892,0,0,1,.89-.89.892.892,0,0,1,.89.89.892.892,0,0,1-.89.89A.9.9,0,0,1-540.1-335.853Zm-4.865,4.431a.992.992,0,0,1-.99-.99.992.992,0,0,1,.99-.99.986.986,0,0,1,.99.99A.992.992,0,0,1-544.965-331.422Zm3.958,0a.992.992,0,0,1-.99-.99.992.992,0,0,1,.99-.99.992.992,0,0,1,.99.99A1,1,0,0,1-541.006-331.422Z" transform="translate(549.336 347.152)" fill="#45CB85"/>
      <path id="Path_2" data-name="Path 2" d="M-311.726-775.91a2.158,2.158,0,0,0-2.159-2.11h-2.2v2.2a2.158,2.158,0,0,0,2.16,2.16h3.64a1.562,1.562,0,0,0,1.563-1.563v-1.589h-1.589a1.562,1.562,0,0,0-1.42.907Z" transform="translate(318.798 778.02)" fill="#45CB85"/>
    </g>
    <text id="BandJam" transform="translate(185.689 96.5)" fill="#f6f5f5" font-size="22" font-family="Circular-Medium, Circular" font-weight="500"><tspan x="0" y="0">BandJam</tspan></text>
  </g>
</svg>
