<svg xmlns="http://www.w3.org/2000/svg" width="20" height="20" viewBox="0 0 20 20">
  <path id="Spotify_logo_with_text" d="M10.253.277a10,10,0,1,0,10,10,10,10,0,0,0-10-10h0ZM14.839,14.7a.623.623,0,0,1-.857.207c-2.348-1.434-5.3-1.759-8.784-.964a.623.623,0,0,1-.277-1.216c3.809-.87,7.077-.5,9.713,1.115A.623.623,0,0,1,14.839,14.7Zm1.224-2.723a.78.78,0,0,1-1.072.257,13.125,13.125,0,0,0-9.965-1.166.78.78,0,1,1-.453-1.492,14.589,14.589,0,0,1,11.233,1.329.779.779,0,0,1,.257,1.072Zm.105-2.835C12.945,7.227,7.628,7.051,4.55,7.985A.935.935,0,1,1,4.007,6.2c3.532-1.072,9.4-.865,13.115,1.338a.935.935,0,1,1-.954,1.609Z" transform="translate(-0.253 -0.277)" fill="#21242D"/>
</svg>
